<svg width="68" height="56" viewBox="0 0 68 56" fill="none" xmlns="http://www.w3.org/2000/svg">
<path d="M4.77243 55.3478C6.09886 55.3478 7.23385 54.8419 8.09535 53.8436L6.80994 52.3121C6.33133 52.8317 5.68862 53.2419 4.86815 53.2419C3.43232 53.2419 2.50245 52.0659 2.50245 50.0421C2.50245 48.0593 3.58274 46.8833 4.8955 46.8833C5.62025 46.8833 6.15356 47.2114 6.67319 47.6764L7.94492 46.1175C7.24752 45.4064 6.18091 44.791 4.85447 44.791C2.26998 44.791 0 46.7328 0 50.1241C0 53.5701 2.18793 55.3478 4.77243 55.3478Z" fill="white"/>
<path d="M9.39432 55.1564H11.8284V49.96C12.2933 49.5088 12.6215 49.2626 13.1685 49.2626C13.7839 49.2626 14.071 49.5635 14.071 50.6438V55.1564H16.5051V50.3429C16.5051 48.4011 15.7803 47.1841 14.0847 47.1841C13.0318 47.1841 12.266 47.7174 11.7053 48.237L11.8284 46.8559V44.2304H9.39432V55.1564Z" fill="white"/>
<path d="M21.7726 55.3478C23.7417 55.3478 25.5741 53.8436 25.5741 51.2591C25.5741 48.6883 23.7417 47.1841 21.7726 47.1841C19.7898 47.1841 17.9574 48.6883 17.9574 51.2591C17.9574 53.8436 19.7898 55.3478 21.7726 55.3478ZM21.7726 53.3787C20.8564 53.3787 20.4462 52.5582 20.4462 51.2591C20.4462 49.9737 20.8564 49.1532 21.7726 49.1532C22.6751 49.1532 23.0853 49.9737 23.0853 51.2591C23.0853 52.5582 22.6751 53.3787 21.7726 53.3787Z" fill="white"/>
<path d="M29.3464 55.3478C31.4659 55.3478 32.5872 54.2402 32.5872 52.8043C32.5872 51.3959 31.507 50.8352 30.5361 50.466C29.7293 50.1788 29.0592 50.0011 29.0592 49.5361C29.0592 49.1669 29.319 48.9755 29.8797 48.9755C30.3856 48.9755 30.9326 49.2353 31.4933 49.6318L32.5736 48.1823C31.9172 47.6764 31.0147 47.1841 29.7976 47.1841C27.9789 47.1841 26.7892 48.1823 26.7892 49.6455C26.7892 50.9446 27.8422 51.5736 28.772 51.9428C29.5652 52.2574 30.3173 52.4761 30.3173 52.9411C30.3173 53.324 30.0438 53.5564 29.4011 53.5564C28.7857 53.5564 28.143 53.2693 27.4319 52.736L26.3516 54.2538C27.1448 54.9102 28.3345 55.3478 29.3464 55.3478Z" fill="white"/>
<path d="M33.9925 55.1564H36.4266V49.96C36.8779 49.4814 37.3018 49.2626 37.6573 49.2626C38.2727 49.2626 38.5598 49.5635 38.5598 50.6438V55.1564H40.9939V49.96C41.4588 49.4814 41.8827 49.2626 42.2383 49.2626C42.8536 49.2626 43.1271 49.5635 43.1271 50.6438V55.1564H45.5612V50.3429C45.5612 48.4011 44.8228 47.1841 43.1271 47.1841C42.0879 47.1841 41.3631 47.7858 40.6931 48.4695C40.2965 47.6354 39.6401 47.1841 38.5598 47.1841C37.5069 47.1841 36.8368 47.7174 36.1941 48.3601H36.1531L35.9753 47.3755H33.9925V55.1564Z" fill="white"/>
<path d="M50.9948 55.3478C51.8973 55.3478 52.964 55.0333 53.7708 54.459L52.964 52.9958C52.4033 53.324 51.8837 53.4881 51.323 53.4881C50.3384 53.4881 49.6 53.0505 49.3812 51.9839H53.9485C54.0032 51.7924 54.0579 51.3685 54.0579 50.9309C54.0579 48.8114 52.964 47.1841 50.7213 47.1841C48.8479 47.1841 47.0292 48.743 47.0292 51.2591C47.0292 53.8436 48.7522 55.3478 50.9948 55.3478ZM49.3402 50.3839C49.5043 49.4677 50.0923 49.0438 50.7624 49.0438C51.6512 49.0438 51.9931 49.6182 51.9931 50.3839H49.3402Z" fill="white"/>
<path d="M55.9429 55.1564H58.3769V49.2763H59.7581V47.3755H58.3769V47.0063C58.3769 46.2269 58.7051 45.9397 59.2384 45.9397C59.4983 45.9397 59.7854 45.9944 60.0316 46.1038L60.4692 44.2988C60.1273 44.1757 59.5666 44.0389 58.8829 44.0389C56.7223 44.0389 55.9429 45.4337 55.9429 47.0747V47.3892L54.9036 47.4713V49.2763H55.9429V55.1564Z" fill="white"/>
<path d="M64.1985 55.3478C66.1676 55.3478 68 53.8436 68 51.2591C68 48.6883 66.1676 47.1841 64.1985 47.1841C62.2157 47.1841 60.3833 48.6883 60.3833 51.2591C60.3833 53.8436 62.2157 55.3478 64.1985 55.3478ZM64.1985 53.3787C63.2823 53.3787 62.872 52.5582 62.872 51.2591C62.872 49.9737 63.2823 49.1532 64.1985 49.1532C65.101 49.1532 65.5112 49.9737 65.5112 51.2591C65.5112 52.5582 65.101 53.3787 64.1985 53.3787Z" fill="white"/>
<path fill-rule="evenodd" clip-rule="evenodd" d="M23.7842 0.800049C19.6961 0.800049 16.3821 4.11408 16.3821 8.20214V28.6813C16.3821 32.7693 19.6961 36.0833 23.7842 36.0833H44.2633C48.3513 36.0833 51.6654 32.7693 51.6654 28.6813V8.20214C51.6654 4.11408 48.3513 0.800049 44.2633 0.800049H23.7842ZM43.7405 24.577C44.0171 24.1241 44.1243 23.5493 44.0482 22.9142C43.6676 19.7924 40.7743 18.3023 40.6883 18.266C40.5677 18.189 37.6376 16.4375 33.5182 18.4256C29.8307 20.4682 29.5907 24.2333 29.5839 24.351C29.5695 24.4548 29.2466 26.9233 30.7827 28.8416C31.7838 30.0972 33.5613 30.3953 34.8504 29.4654C35.3448 29.1137 35.8027 28.6203 36.2017 28.0096C36.2237 27.9735 36.241 27.9399 36.2558 27.9017C36.3105 27.7516 36.4525 27.4452 36.653 27.1363C36.8535 26.8274 37.1126 26.5161 37.4108 26.351C37.6752 26.2225 37.8862 26.1056 38.2134 25.9064C38.7684 25.599 39.7679 25.7046 40.1513 25.78C41.2735 25.9016 42.1858 25.7739 42.86 25.4004C43.2315 25.1946 43.5272 24.9169 43.7405 24.577ZM37.1599 16.1267C38.8431 15.1943 39.2064 12.6255 37.9743 10.4011C36.7421 8.1766 34.3743 7.12659 32.6911 8.05897C31.0124 8.98881 30.6466 11.553 31.8788 13.7775C33.1109 16.0019 35.4812 17.0565 37.1599 16.1267ZM30.8954 13.6687C32.0412 15.7373 31.6985 18.1268 30.1299 18.9957C28.5613 19.8645 26.3539 18.8875 25.2081 16.819C24.0598 14.7459 24.4024 12.3564 25.971 11.4875C27.5396 10.6187 29.7471 11.5956 30.8954 13.6687ZM23.2817 19.5524C21.9883 20.2688 21.6956 22.2291 22.6331 23.9215C23.568 25.6094 25.385 26.401 26.6784 25.6846C27.9718 24.9681 28.26 23.0104 27.3251 21.3225C26.3876 19.6301 24.5751 18.8359 23.2817 19.5524ZM45.2454 12.8048C46.2444 14.6084 45.9393 16.6881 44.5638 17.45C43.1884 18.2118 41.2635 17.3674 40.2645 15.5639C39.2655 13.7603 39.5706 11.6806 40.9461 10.9187C42.3215 10.1569 44.2464 11.0013 45.2454 12.8048Z" fill="white"/>
</svg>
